<svg width="30" height="23" viewBox="0 0 30 23" fill="none" xmlns="http://www.w3.org/2000/svg">
<g clip-path="url(#clip0_2_2)">
<path d="M0.000210936 2.72515C0.000210936 5.07515 0.800211 6.22515 4.00021 8.32515C7.55021 10.6752 8.00021 11.4252 8.00021 14.9252C8.00021 19.8252 9.50021 22.7252 12.0502 22.7252C13.8002 22.7252 14.0002 22.0252 14.0002 14.9752L13.9502 7.22515L7.55021 3.47515C-0.149789 -1.02485 0.000210936 -1.02485 0.000210936 2.72515ZM22.2502 3.52515L16.0502 7.22515L16.0002 14.9752C16.0002 22.0252 16.2002 22.7252 17.9502 22.7252C20.5002 22.7252 22.0002 19.8252 22.0002 14.9252C22.0002 11.4252 22.4502 10.6752 26.0002 8.32515C29.2002 6.22515 30.0002 5.07515 30.0002 2.72515C30.0002 -1.02485 29.8502 -0.974849 22.2502 3.52515Z" fill="#1B84FF"/>
</g>
<defs>
<clipPath id="clip0_2_2">
<rect width="30" height="23" fill="white"/>
</clipPath>
</defs>
</svg>
