<svg width="27" height="40" viewBox="0 0 27 40" fill="none" xmlns="http://www.w3.org/2000/svg">
<g clip-path="url(#clip0_1_747)">
<path d="M6.66932 40C10.3493 40 13.336 37.0134 13.336 33.3334V26.6667H6.66932C2.98932 26.6667 0.00265503 29.6534 0.00265503 33.3334C0.00265503 37.0134 2.98932 40 6.66932 40Z" fill="#0ACF83"/>
<path d="M0.00265503 20C0.00265503 16.32 2.98932 13.3333 6.66932 13.3333H13.336V26.6666H6.66932C2.98932 26.6666 0.00265503 23.68 0.00265503 20Z" fill="#A259FF"/>
<path d="M0.00265503 6.66667C0.00265503 2.98667 2.98932 0 6.66932 0H13.336V13.3333H6.66932C2.98932 13.3333 0.00265503 10.3467 0.00265503 6.66667Z" fill="#F24E1E"/>
<path d="M13.336 0H20.0027C23.6827 0 26.6693 2.98667 26.6693 6.66667C26.6693 10.3467 23.6827 13.3333 20.0027 13.3333H13.336V0Z" fill="#FF7262"/>
<path d="M26.6693 20C26.6693 23.68 23.6827 26.6666 20.0027 26.6666C16.3227 26.6666 13.336 23.68 13.336 20C13.336 16.32 16.3227 13.3333 20.0027 13.3333C23.6827 13.3333 26.6693 16.32 26.6693 20Z" fill="#1ABCFE"/>
</g>
<defs>
<clipPath id="clip0_1_747">
<rect width="26.672" height="40" fill="white"/>
</clipPath>
</defs>
</svg>
