<svg width="163" height="23" viewBox="0 0 163 23" fill="none" xmlns="http://www.w3.org/2000/svg">
<path d="M44.4453 5.67578L47.7324 14.957L51.0019 5.67578H54.4648V18.4727H51.8193V14.9746L52.083 8.93653L48.6289 18.4727H46.8184L43.3731 8.94531L43.6367 14.9746V18.4727H41V5.67578H44.4453ZM64.1504 15.8359H59.5273L58.6484 18.4727H55.8447L60.6084 5.67578H63.0517L67.8418 18.4727H65.0381L64.1504 15.8359ZM60.2392 13.7002H63.4385L61.8301 8.91016L60.2392 13.7002ZM77.6152 7.81153H73.6953V18.4727H71.0586V7.81153H67.1914V5.67578H77.6152V7.81153ZM86.8262 12.9268H81.7637V16.3545H87.7051V18.4727H79.1269V5.67578H87.6875V7.81153H81.7637V10.8613H86.8262V12.9268ZM93.9892 13.7881H91.8887V18.4727H89.2519V5.67578H94.0068C95.5185 5.67578 96.6846 6.0127 97.5049 6.68653C98.3252 7.36035 98.7353 8.3125 98.7353 9.54297C98.7353 10.416 98.5449 11.1455 98.1641 11.7314C97.7891 12.3115 97.2178 12.7744 96.4502 13.1201L99.2187 18.3496V18.4727H96.3887L93.9892 13.7881ZM91.8887 11.6523H94.0156C94.6777 11.6523 95.1904 11.4853 95.5537 11.1514C95.917 10.8115 96.0986 10.3457 96.0986 9.75391C96.0986 9.15039 95.9258 8.67578 95.5801 8.33008C95.2402 7.98438 94.7158 7.81153 94.0068 7.81153H91.8887V11.6523ZM103.552 18.4727H100.915V5.67578H103.552V18.4727ZM113.387 15.8359H108.764L107.885 18.4727H105.081L109.845 5.67578H112.288L117.078 18.4727H114.274L113.387 15.8359ZM109.476 13.7002H112.675L111.066 8.91016L109.476 13.7002ZM120.91 16.3545H126.509V18.4727H118.273V5.67578H120.91V16.3545ZM129.585 13.2607V18.4727H128.504V5.67578H132.863C134.193 5.67578 135.242 6.01563 136.01 6.69531C136.783 7.375 137.17 8.30957 137.17 9.49903C137.17 10.7002 136.798 11.6289 136.054 12.2852C135.315 12.9355 134.243 13.2607 132.837 13.2607H129.585ZM129.585 12.3467H132.863C133.912 12.3467 134.712 12.0977 135.263 11.5996C135.814 11.1016 136.089 10.4072 136.089 9.5166C136.089 8.63184 135.814 7.92871 135.263 7.40723C134.718 6.87989 133.941 6.61035 132.934 6.59864H129.585V12.3467ZM144.377 13.1465H140.659V18.4727H139.569V5.67578H143.726C145.092 5.67578 146.158 6.00684 146.926 6.66895C147.693 7.33106 148.077 8.25684 148.077 9.44629C148.077 10.2666 147.837 10.9902 147.356 11.6172C146.876 12.2441 146.231 12.6777 145.423 12.918L148.622 18.3584V18.4727H147.47L144.377 13.1465ZM140.659 12.2236H143.972C144.881 12.2236 145.61 11.9658 146.161 11.4502C146.712 10.9346 146.987 10.2666 146.987 9.44629C146.987 8.54395 146.7 7.84375 146.126 7.34571C145.552 6.84766 144.746 6.59864 143.709 6.59864H140.659V12.2236ZM160.478 12.7686C160.478 13.9463 160.273 14.9805 159.863 15.8711C159.459 16.7617 158.879 17.4473 158.123 17.9277C157.367 18.4082 156.494 18.6484 155.504 18.6484C154.01 18.6484 152.803 18.1152 151.883 17.0488C150.963 15.9766 150.503 14.5322 150.503 12.7158V11.3975C150.503 10.2314 150.708 9.2002 151.118 8.30371C151.534 7.40137 152.12 6.70996 152.876 6.22949C153.632 5.74317 154.502 5.5 155.486 5.5C156.47 5.5 157.338 5.73731 158.088 6.21192C158.844 6.68653 159.427 7.35742 159.837 8.22461C160.247 9.0918 160.461 10.0967 160.478 11.2393V12.7686ZM159.397 11.3799C159.397 9.83887 159.049 8.63184 158.351 7.75879C157.654 6.88574 156.699 6.44922 155.486 6.44922C154.297 6.44922 153.347 6.88867 152.638 7.76758C151.935 8.64063 151.584 9.86231 151.584 11.4326V12.7686C151.584 14.2861 151.935 15.4902 152.638 16.3809C153.342 17.2656 154.297 17.708 155.504 17.708C156.728 17.708 157.683 17.2715 158.369 16.3984C159.054 15.5195 159.397 14.2979 159.397 12.7334V11.3799Z" fill="#525C65"/>
<g clip-path="url(#clip0_2_7)">
<path d="M0.000210937 2.72515C0.000210937 5.07515 0.800211 6.22515 4.00021 8.32515C7.55021 10.6752 8.00021 11.4252 8.00021 14.9252C8.00021 19.8252 9.50021 22.7252 12.0502 22.7252C13.8002 22.7252 14.0002 22.0252 14.0002 14.9752L13.9502 7.22515L7.55021 3.47515C-0.149789 -1.02485 0.000210937 -1.02485 0.000210937 2.72515Z" fill="#444444"/>
<path d="M22.2502 3.52516L16.0502 7.22516L16.0002 14.9752C16.0002 22.0252 16.2002 22.7252 17.9502 22.7252C20.5002 22.7252 22.0002 19.8252 22.0002 14.9252C22.0002 11.4252 22.4502 10.6752 26.0002 8.32516C29.2002 6.22516 30.0002 5.07516 30.0002 2.72516C30.0002 -1.02484 29.8502 -0.97484 22.2502 3.52516Z" fill="#444444"/>
</g>
<defs>
<clipPath id="clip0_2_7">
<rect width="30" height="23" fill="white"/>
</clipPath>
</defs>
</svg>
