<svg width="168" height="23" viewBox="0 0 168 23" fill="none" xmlns="http://www.w3.org/2000/svg">
<path d="M0.000210938 2.72516C0.000210938 5.07516 0.800211 6.22516 4.00021 8.32516C7.55021 10.6752 8.00021 11.4252 8.00021 14.9252C8.00021 19.8252 9.50021 22.7252 12.0502 22.7252C13.8002 22.7252 14.0002 22.0252 14.0002 14.9752L13.9502 7.22516L7.55021 3.47516C-0.149789 -1.02484 0.000210938 -1.02484 0.000210938 2.72516Z" fill="white"/>
<path d="M22.2502 3.52516L16.0502 7.22516L16.0002 14.9752C16.0002 22.0252 16.2002 22.7252 17.9502 22.7252C20.5002 22.7252 22.0002 19.8252 22.0002 14.9252C22.0002 11.4252 22.4502 10.6752 26.0002 8.32516C29.2002 6.22516 30.0002 5.07516 30.0002 2.72516C30.0002 -1.02484 29.8502 -0.974842 22.2502 3.52516Z" fill="white"/>
<path d="M50.5879 5.20312L53.875 14.4844L57.1445 5.20312H60.6074V18H57.9619V14.502L58.2256 8.46387L54.7715 18H52.9609L49.5156 8.47266L49.7793 14.502V18H47.1426V5.20312H50.5879ZM70.293 15.3633H65.6699L64.791 18H61.9873L66.751 5.20312H69.1943L73.9844 18H71.1807L70.293 15.3633ZM66.3818 13.2275H69.5811L67.9727 8.4375L66.3818 13.2275ZM83.7578 7.33887H79.8379V18H77.2012V7.33887H73.334V5.20312H83.7578V7.33887ZM92.9688 12.4541H87.9062V15.8818H93.8477V18H85.2695V5.20312H93.8301V7.33887H87.9062V10.3887H92.9688V12.4541ZM100.132 13.3154H98.0312V18H95.3945V5.20312H100.149C101.661 5.20312 102.827 5.54004 103.647 6.21387C104.468 6.8877 104.878 7.83984 104.878 9.07031C104.878 9.94336 104.688 10.6729 104.307 11.2588C103.932 11.8389 103.36 12.3018 102.593 12.6475L105.361 17.877V18H102.531L100.132 13.3154ZM98.0312 11.1797H100.158C100.82 11.1797 101.333 11.0127 101.696 10.6787C102.06 10.3389 102.241 9.87305 102.241 9.28125C102.241 8.67773 102.068 8.20312 101.723 7.85742C101.383 7.51172 100.858 7.33887 100.149 7.33887H98.0312V11.1797ZM109.694 18H107.058V5.20312H109.694V18ZM119.529 15.3633H114.906L114.027 18H111.224L115.987 5.20312H118.431L123.221 18H120.417L119.529 15.3633ZM115.618 13.2275H118.817L117.209 8.4375L115.618 13.2275ZM127.053 15.8818H132.651V18H124.416V5.20312H127.053V15.8818ZM135.728 12.7881V18H134.646V5.20312H139.006C140.336 5.20312 141.385 5.54297 142.152 6.22266C142.926 6.90234 143.312 7.83691 143.312 9.02637C143.312 10.2275 142.94 11.1562 142.196 11.8125C141.458 12.4629 140.386 12.7881 138.979 12.7881H135.728ZM135.728 11.874H139.006C140.055 11.874 140.854 11.625 141.405 11.127C141.956 10.6289 142.231 9.93457 142.231 9.04395C142.231 8.15918 141.956 7.45605 141.405 6.93457C140.86 6.40723 140.084 6.1377 139.076 6.12598H135.728V11.874ZM150.52 12.6738H146.802V18H145.712V5.20312H149.869C151.234 5.20312 152.301 5.53418 153.068 6.19629C153.836 6.8584 154.22 7.78418 154.22 8.97363C154.22 9.79395 153.979 10.5176 153.499 11.1445C153.019 11.7715 152.374 12.2051 151.565 12.4453L154.765 17.8857V18H153.613L150.52 12.6738ZM146.802 11.751H150.115C151.023 11.751 151.753 11.4932 152.304 10.9775C152.854 10.4619 153.13 9.79395 153.13 8.97363C153.13 8.07129 152.843 7.37109 152.269 6.87305C151.694 6.375 150.889 6.12598 149.852 6.12598H146.802V11.751ZM166.621 12.2959C166.621 13.4736 166.416 14.5078 166.006 15.3984C165.602 16.2891 165.021 16.9746 164.266 17.4551C163.51 17.9355 162.637 18.1758 161.646 18.1758C160.152 18.1758 158.945 17.6426 158.025 16.5762C157.105 15.5039 156.646 14.0596 156.646 12.2432V10.9248C156.646 9.75879 156.851 8.72754 157.261 7.83105C157.677 6.92871 158.263 6.2373 159.019 5.75684C159.774 5.27051 160.645 5.02734 161.629 5.02734C162.613 5.02734 163.48 5.26465 164.23 5.73926C164.986 6.21387 165.569 6.88477 165.979 7.75195C166.39 8.61914 166.604 9.62402 166.621 10.7666V12.2959ZM165.54 10.9072C165.54 9.36621 165.191 8.15918 164.494 7.28613C163.797 6.41309 162.842 5.97656 161.629 5.97656C160.439 5.97656 159.49 6.41602 158.781 7.29492C158.078 8.16797 157.727 9.38965 157.727 10.96V12.2959C157.727 13.8135 158.078 15.0176 158.781 15.9082C159.484 16.793 160.439 17.2354 161.646 17.2354C162.871 17.2354 163.826 16.7988 164.512 15.9258C165.197 15.0469 165.54 13.8252 165.54 12.2607V10.9072Z" fill="white"/>
</svg>
